<svg xmlns="http://www.w3.org/2000/svg" viewBox="0 0 100 100">
  <rect width="100%" height="100%" rx="20" fill="#0f0f12"/>
  <circle cx="50" cy="50" r="35" fill="none" stroke="#e53e3e" stroke-width="6"/>
  <!-- Stylized Wrench Icon representing garage/mechanic -->
  <path d="M42 35a8 8 0 0 1 14 0l6 3c2 1 3 3 2 5l-2 8c-1 2-3 3-5 2l-6-3a8 8 0 0 1-5-6l-2-6a4 4 0 0 1 2-3z" fill="#f7fafc"/>
  <path d="M47 48l-15 15a4 4 0 0 0 6 6l15-15-6-6z" fill="#e53e3e"/>
  <!-- Highlight dots -->
  <circle cx="50" cy="50" r="3" fill="#ffffff"/>
</svg>
